<svg xmlns="http://www.w3.org/2000/svg" xmlns:xlink="http://www.w3.org/1999/xlink" width="500" zoomAndPan="magnify" viewBox="0 0 375 374.999991" height="500" preserveAspectRatio="xMidYMid meet" version="1.0"><defs><clipPath id="b94c58b781"><path d="M 17.25 0 L 357.75 0 C 362.324219 0 366.710938 1.816406 369.949219 5.050781 C 373.183594 8.289062 375 12.675781 375 17.25 L 375 357.75 C 375 362.324219 373.183594 366.710938 369.949219 369.949219 C 366.710938 373.183594 362.324219 375 357.75 375 L 17.25 375 C 12.675781 375 8.289062 373.183594 5.050781 369.949219 C 1.816406 366.710938 0 362.324219 0 357.75 L 0 17.25 C 0 12.675781 1.816406 8.289062 5.050781 5.050781 C 8.289062 1.816406 12.675781 0 17.25 0 Z M 17.25 0 " clip-rule="nonzero"/></clipPath><clipPath id="0d440e83fd"><path d="M 186 14.40625 L 234 14.40625 L 234 90 L 186 90 Z M 186 14.40625 " clip-rule="nonzero"/></clipPath><clipPath id="c28c8b12f5"><path d="M 41 39 L 333 39 L 333 332.40625 L 41 332.40625 Z M 41 39 " clip-rule="nonzero"/></clipPath></defs><g clip-path="url(#b94c58b781)"><rect x="-37.5" width="450" fill="#ffffff" y="-37.499999" height="449.999989" fill-opacity="1"/></g><g clip-path="url(#0d440e83fd)"><path fill="#60b404" d="M 187.578125 89.3125 C 218.691406 78.566406 237.675781 47.089844 232.660156 14.40625 C 201.484375 25.152344 182.371094 56.628906 187.578125 89.3125 Z M 187.578125 89.3125 " fill-opacity="1" fill-rule="evenodd"/></g><g clip-path="url(#c28c8b12f5)"><path fill="#f13556" d="M 217.867188 102.15625 C 249.675781 102.15625 278.378906 115 299.140625 135.792969 C 320.09375 156.777344 332.921875 185.457031 332.921875 217.183594 C 332.921875 249.042969 320.09375 277.785156 299.140625 298.578125 C 278.378906 319.5625 249.613281 332.40625 217.867188 332.40625 C 299.140625 316.445312 340.667969 211.207031 282.25 152.769531 C 267.136719 137.636719 247.835938 129.054688 227.898438 126.765625 C 231.453125 129.6875 235.074219 132.613281 238.246094 135.855469 C 254.3125 152.070312 265.679688 173.054688 270.058594 196.582031 L 245.550781 196.582031 C 241.675781 179.667969 233.105469 164.597656 221.421875 152.769531 C 211.832031 143.359375 200.339844 136.046875 187.515625 131.34375 C 175.070312 135.730469 163.386719 142.851562 153.480469 152.769531 C 137.097656 169.304688 126.875 192.066406 126.875 217.25 C 126.875 242.429688 137.097656 265.320312 153.480469 281.726562 C 163.066406 291.328125 174.625 298.640625 187.386719 303.347656 C 200.402344 298.640625 211.898438 291.328125 221.421875 281.726562 C 233.105469 270.027344 241.675781 254.890625 245.550781 237.976562 L 270.058594 237.976562 C 265.679688 261.503906 254.3125 282.488281 238.246094 298.578125 C 234.820312 302.011719 231.453125 305.0625 227.707031 307.988281 L 228.152344 307.796875 C 216.277344 317.207031 202.5 324.203125 187.578125 328.273438 C 190.5 329.097656 193.609375 329.863281 196.65625 330.371094 C 193.546875 329.734375 190.308594 329.035156 187.261719 328.273438 C 177.546875 330.878906 167.257812 332.339844 156.78125 332.339844 C 125.160156 332.339844 96.460938 319.496094 75.507812 298.511719 C 54.808594 277.59375 41.980469 248.851562 41.980469 217.058594 C 41.980469 185.390625 54.808594 156.648438 75.570312 135.667969 C 96.523438 114.875 125.160156 102.027344 156.84375 102.027344 C 75.761719 117.796875 34.042969 223.226562 92.460938 281.535156 C 106.875 295.96875 125.859375 305.636719 147.128906 307.859375 C 143.382812 304.9375 139.957031 301.820312 136.589844 298.449219 C 115.828125 277.65625 103 248.851562 103 217.058594 C 103 185.390625 115.828125 156.648438 136.589844 135.667969 C 140.019531 132.421875 143.382812 129.308594 147.128906 126.382812 L 146.6875 126.382812 C 153.859375 120.851562 161.609375 116.019531 170.054688 112.203125 C 154.433594 95.859375 144.84375 76.976562 143.890625 55.738281 C 142.75 32.65625 159.449219 37.042969 162.050781 50.332031 C 171.957031 101.648438 190.433594 97.960938 225.992188 125.046875 L 226.183594 125.046875 L 226.183594 125.238281 L 226.375 125.238281 L 226.5625 125.429688 L 226.753906 125.621094 L 226.945312 125.621094 L 226.945312 125.808594 L 227.136719 125.808594 L 227.328125 126 L 227.515625 126.191406 L 227.769531 126.191406 L 227.769531 126.382812 L 227.960938 126.382812 L 228.152344 126.574219 C 220.851562 118.179688 215.832031 110.039062 213.230469 102.21875 C 214.4375 102.15625 216.277344 102.15625 217.867188 102.15625 Z M 217.867188 102.15625 " fill-opacity="1" fill-rule="nonzero"/></g></svg>