<svg xmlns="http://www.w3.org/2000/svg" xmlns:xlink="http://www.w3.org/1999/xlink" width="500" zoomAndPan="magnify" viewBox="0 0 375 179.999997" height="240" preserveAspectRatio="xMidYMid meet" version="1.0"><defs><g/><clipPath id="2b216080f5"><path d="M 158 5.988281 L 177 5.988281 L 177 36 L 158 36 Z M 158 5.988281 " clip-rule="nonzero"/></clipPath><clipPath id="f923c25591"><path d="M 101 15 L 216 15 L 216 131.269531 L 101 131.269531 Z M 101 15 " clip-rule="nonzero"/></clipPath></defs><g fill="#474747" fill-opacity="1"><g transform="translate(163.025605, 134.87466)"><g><path d="M 53.53125 -95.65625 C 67.625 -95.65625 79.191406 -90.941406 88.234375 -81.515625 C 97.078125 -72.378906 101.5 -60.957031 101.5 -47.25 C 101.5 -33.550781 97.078125 -22.128906 88.234375 -12.984375 C 79.191406 -3.566406 67.625 1.140625 53.53125 1.140625 C 39.445312 1.140625 27.882812 -3.566406 18.84375 -12.984375 C 9.988281 -22.128906 5.5625 -33.550781 5.5625 -47.25 C 5.5625 -60.957031 9.988281 -72.378906 18.84375 -81.515625 C 27.882812 -90.941406 39.445312 -95.65625 53.53125 -95.65625 Z M 53.53125 -9.28125 C 64.769531 -9.28125 73.863281 -12.941406 80.8125 -20.265625 C 87.46875 -27.316406 90.796875 -36.3125 90.796875 -47.25 C 90.796875 -58.195312 87.46875 -67.191406 80.8125 -74.234375 C 73.863281 -81.566406 64.769531 -85.234375 53.53125 -85.234375 C 42.300781 -85.234375 33.210938 -81.566406 26.265625 -74.234375 C 19.609375 -67.191406 16.28125 -58.195312 16.28125 -47.25 C 16.28125 -36.3125 19.609375 -27.316406 26.265625 -20.265625 C 33.210938 -12.941406 42.300781 -9.28125 53.53125 -9.28125 Z M 53.53125 -9.28125 "/></g></g></g><g fill="#474747" fill-opacity="1"><g transform="translate(256.525833, 134.87466)"><g><path d="M 51.390625 -94.515625 C 57.003906 -94.515625 62.425781 -93.441406 67.65625 -91.296875 C 72.894531 -89.160156 77.515625 -86.046875 81.515625 -81.953125 C 90.367188 -72.910156 94.796875 -61.34375 94.796875 -47.25 C 94.796875 -33.164062 90.367188 -21.601562 81.515625 -12.5625 C 77.515625 -8.46875 72.894531 -5.347656 67.65625 -3.203125 C 62.425781 -1.066406 57.003906 0 51.390625 0 L 11.5625 0 L 11.5625 -94.515625 Z M 50.96875 -10.140625 C 60.863281 -10.140625 68.90625 -13.800781 75.09375 -21.125 C 81.09375 -28.164062 84.09375 -36.875 84.09375 -47.25 C 84.09375 -57.625 81.09375 -66.332031 75.09375 -73.375 C 68.90625 -80.707031 60.863281 -84.375 50.96875 -84.375 L 22.265625 -84.375 L 22.265625 -10.140625 Z M 50.96875 -10.140625 "/></g></g></g><g fill="#474747" fill-opacity="1"><g transform="translate(20.907254, 134.700951)"><g><path d="M 22.265625 -84.234375 L 22.265625 -51.390625 L 73.53125 -51.390625 L 73.53125 -40.96875 L 22.265625 -40.96875 L 22.265625 0 L 11.5625 0 L 11.5625 -94.515625 L 79.8125 -94.515625 L 79.8125 -84.234375 Z M 22.265625 -84.234375 "/></g></g></g><g fill="#8cc342" fill-opacity="0.4"><g transform="translate(27.996004, 172.478549)"><g><path d="M 16.828125 -2.90625 C 18.941406 -2.90625 20.796875 -3.441406 22.390625 -4.515625 C 23.992188 -5.585938 25.179688 -7.035156 25.953125 -8.859375 L 29.484375 -8.859375 C 28.503906 -6.054688 26.878906 -3.847656 24.609375 -2.234375 C 22.191406 -0.503906 19.34375 0.359375 16.0625 0.359375 C 11.738281 0.359375 8.234375 -1.117188 5.546875 -4.078125 C 3.015625 -6.910156 1.75 -10.488281 1.75 -14.8125 C 1.75 -19.132812 3.015625 -22.710938 5.546875 -25.546875 C 8.234375 -28.503906 11.738281 -29.984375 16.0625 -29.984375 C 19.34375 -29.984375 22.191406 -29.117188 24.609375 -27.390625 C 26.878906 -25.773438 28.503906 -23.566406 29.484375 -20.765625 L 25.953125 -20.765625 C 25.179688 -22.585938 23.992188 -24.035156 22.390625 -25.109375 C 20.796875 -26.179688 18.941406 -26.71875 16.828125 -26.71875 C 14.710938 -26.71875 12.953125 -26.410156 11.546875 -25.796875 C 10.140625 -25.179688 8.960938 -24.335938 8.015625 -23.265625 C 6.066406 -21.085938 5.09375 -18.269531 5.09375 -14.8125 C 5.09375 -11.351562 6.066406 -8.535156 8.015625 -6.359375 C 10.035156 -4.054688 12.972656 -2.90625 16.828125 -2.90625 Z M 16.828125 -2.90625 "/></g></g></g><g fill="#8cc342" fill-opacity="0.4"><g transform="translate(58.868269, 172.478549)"><g><path d="M 12.625 -22.734375 C 15.957031 -22.734375 18.671875 -21.613281 20.765625 -19.375 C 22.734375 -17.226562 23.71875 -14.5 23.71875 -11.1875 C 23.71875 -7.875 22.734375 -5.144531 20.765625 -3 C 18.671875 -0.757812 15.957031 0.359375 12.625 0.359375 C 9.28125 0.359375 6.5625 -0.757812 4.46875 -3 C 2.5 -5.144531 1.515625 -7.875 1.515625 -11.1875 C 1.515625 -14.5 2.5 -17.226562 4.46875 -19.375 C 6.5625 -21.613281 9.28125 -22.734375 12.625 -22.734375 Z M 12.625 -2.6875 C 15.039062 -2.6875 16.945312 -3.519531 18.34375 -5.1875 C 19.6875 -6.769531 20.359375 -8.769531 20.359375 -11.1875 C 20.359375 -13.601562 19.6875 -15.601562 18.34375 -17.1875 C 16.945312 -18.851562 15.039062 -19.6875 12.625 -19.6875 C 10.207031 -19.6875 8.296875 -18.851562 6.890625 -17.1875 C 5.546875 -15.601562 4.875 -13.601562 4.875 -11.1875 C 4.875 -8.769531 5.546875 -6.769531 6.890625 -5.1875 C 8.296875 -3.519531 10.207031 -2.6875 12.625 -2.6875 Z M 12.625 -2.6875 "/></g></g></g><g fill="#8cc342" fill-opacity="0.4"><g transform="translate(84.103003, 172.478549)"><g><path d="M 6.265625 -22.375 L 6.265625 -18.890625 C 7.066406 -19.960938 8.050781 -20.867188 9.21875 -21.609375 C 10.382812 -22.359375 11.710938 -22.734375 13.203125 -22.734375 C 14.691406 -22.734375 15.972656 -22.523438 17.046875 -22.109375 C 18.117188 -21.691406 19.0625 -21.066406 19.875 -20.234375 C 21.71875 -18.410156 22.640625 -16.003906 22.640625 -13.015625 L 22.640625 0 L 19.28125 0 L 19.28125 -12.9375 C 19.28125 -14.988281 18.695312 -16.625 17.53125 -17.84375 C 16.375 -19.070312 14.867188 -19.6875 13.015625 -19.6875 C 11.140625 -19.6875 9.546875 -19.0625 8.234375 -17.8125 C 6.921875 -16.53125 6.265625 -14.890625 6.265625 -12.890625 L 6.265625 0 L 2.90625 0 L 2.90625 -22.375 Z M 6.265625 -22.375 "/></g></g></g><g fill="#8cc342" fill-opacity="0.4"><g transform="translate(109.427205, 172.478549)"><g><path d="M 6.265625 -22.375 L 6.265625 -18.890625 C 7.066406 -19.960938 8.050781 -20.867188 9.21875 -21.609375 C 10.382812 -22.359375 11.710938 -22.734375 13.203125 -22.734375 C 14.691406 -22.734375 15.972656 -22.523438 17.046875 -22.109375 C 18.117188 -21.691406 19.0625 -21.066406 19.875 -20.234375 C 21.71875 -18.410156 22.640625 -16.003906 22.640625 -13.015625 L 22.640625 0 L 19.28125 0 L 19.28125 -12.9375 C 19.28125 -14.988281 18.695312 -16.625 17.53125 -17.84375 C 16.375 -19.070312 14.867188 -19.6875 13.015625 -19.6875 C 11.140625 -19.6875 9.546875 -19.0625 8.234375 -17.8125 C 6.921875 -16.53125 6.265625 -14.890625 6.265625 -12.890625 L 6.265625 0 L 2.90625 0 L 2.90625 -22.375 Z M 6.265625 -22.375 "/></g></g></g><g fill="#8cc342" fill-opacity="0.4"><g transform="translate(134.751407, 172.478549)"><g><path d="M 12.890625 -2.6875 C 15.898438 -2.6875 18.0625 -3.9375 19.375 -6.4375 L 23.046875 -6.4375 C 22.265625 -4.414062 21.03125 -2.773438 19.34375 -1.515625 C 17.664062 -0.265625 15.5 0.359375 12.84375 0.359375 C 9.46875 0.359375 6.722656 -0.757812 4.609375 -3 C 2.546875 -5.175781 1.515625 -7.90625 1.515625 -11.1875 C 1.515625 -14.5 2.5 -17.226562 4.46875 -19.375 C 6.5625 -21.613281 9.28125 -22.734375 12.625 -22.734375 C 15.957031 -22.734375 18.671875 -21.613281 20.765625 -19.375 C 22.734375 -17.226562 23.71875 -14.5 23.71875 -11.1875 L 23.71875 -9.84375 L 4.96875 -9.84375 C 5.207031 -7.78125 6.023438 -6.082031 7.421875 -4.75 C 8.859375 -3.375 10.679688 -2.6875 12.890625 -2.6875 Z M 12.625 -19.6875 C 10.5625 -19.6875 8.828125 -19.046875 7.421875 -17.765625 C 6.109375 -16.546875 5.304688 -14.953125 5.015625 -12.984375 L 20.234375 -12.984375 C 19.929688 -14.953125 19.125 -16.546875 17.8125 -17.765625 C 16.40625 -19.046875 14.675781 -19.6875 12.625 -19.6875 Z M 12.625 -19.6875 "/></g></g></g><g fill="#8cc342" fill-opacity="0.4"><g transform="translate(159.672924, 172.478549)"><g><path d="M 13.25 -2.6875 C 14.675781 -2.6875 15.941406 -3.085938 17.046875 -3.890625 C 18.148438 -4.691406 18.957031 -5.738281 19.46875 -7.03125 L 23.09375 -7.03125 C 22.40625 -4.820312 21.148438 -3.046875 19.328125 -1.703125 C 17.421875 -0.328125 15.15625 0.359375 12.53125 0.359375 C 9.25 0.359375 6.578125 -0.757812 4.515625 -3 C 2.515625 -5.175781 1.515625 -7.90625 1.515625 -11.1875 C 1.515625 -14.46875 2.515625 -17.195312 4.515625 -19.375 C 6.578125 -21.613281 9.25 -22.734375 12.53125 -22.734375 C 15.15625 -22.734375 17.421875 -22.046875 19.328125 -20.671875 C 21.148438 -19.328125 22.40625 -17.550781 23.09375 -15.34375 L 19.46875 -15.34375 C 18.957031 -16.632812 18.148438 -17.679688 17.046875 -18.484375 C 15.941406 -19.285156 14.671875 -19.6875 13.234375 -19.6875 C 11.804688 -19.6875 10.59375 -19.460938 9.59375 -19.015625 C 8.59375 -18.566406 7.753906 -17.957031 7.078125 -17.1875 C 5.609375 -15.570312 4.875 -13.570312 4.875 -11.1875 C 4.875 -8.800781 5.609375 -6.800781 7.078125 -5.1875 C 8.566406 -3.519531 10.625 -2.6875 13.25 -2.6875 Z M 13.25 -2.6875 "/></g></g></g><g fill="#8cc342" fill-opacity="0.4"><g transform="translate(184.012819, 172.478549)"><g><path d="M 5.328125 0 L 5.328125 -19.421875 L 0.765625 -19.421875 L 0.765625 -22.375 L 5.328125 -22.375 L 5.328125 -30.390625 L 8.6875 -30.390625 L 8.6875 -22.375 L 13.828125 -22.375 L 13.828125 -19.421875 L 8.6875 -19.421875 L 8.6875 0 Z M 5.328125 0 "/></g></g></g><g fill="#60b404" fill-opacity="1"><g transform="translate(27.996004, 172.478549)"><g><path d="M 16.828125 -2.90625 C 18.941406 -2.90625 20.796875 -3.441406 22.390625 -4.515625 C 23.992188 -5.585938 25.179688 -7.035156 25.953125 -8.859375 L 29.484375 -8.859375 C 28.503906 -6.054688 26.878906 -3.847656 24.609375 -2.234375 C 22.191406 -0.503906 19.34375 0.359375 16.0625 0.359375 C 11.738281 0.359375 8.234375 -1.117188 5.546875 -4.078125 C 3.015625 -6.910156 1.75 -10.488281 1.75 -14.8125 C 1.75 -19.132812 3.015625 -22.710938 5.546875 -25.546875 C 8.234375 -28.503906 11.738281 -29.984375 16.0625 -29.984375 C 19.34375 -29.984375 22.191406 -29.117188 24.609375 -27.390625 C 26.878906 -25.773438 28.503906 -23.566406 29.484375 -20.765625 L 25.953125 -20.765625 C 25.179688 -22.585938 23.992188 -24.035156 22.390625 -25.109375 C 20.796875 -26.179688 18.941406 -26.71875 16.828125 -26.71875 C 14.710938 -26.71875 12.953125 -26.410156 11.546875 -25.796875 C 10.140625 -25.179688 8.960938 -24.335938 8.015625 -23.265625 C 6.066406 -21.085938 5.09375 -18.269531 5.09375 -14.8125 C 5.09375 -11.351562 6.066406 -8.535156 8.015625 -6.359375 C 10.035156 -4.054688 12.972656 -2.90625 16.828125 -2.90625 Z M 16.828125 -2.90625 "/></g></g></g><g fill="#60b404" fill-opacity="1"><g transform="translate(58.868269, 172.478549)"><g><path d="M 12.625 -22.734375 C 15.957031 -22.734375 18.671875 -21.613281 20.765625 -19.375 C 22.734375 -17.226562 23.71875 -14.5 23.71875 -11.1875 C 23.71875 -7.875 22.734375 -5.144531 20.765625 -3 C 18.671875 -0.757812 15.957031 0.359375 12.625 0.359375 C 9.28125 0.359375 6.5625 -0.757812 4.46875 -3 C 2.5 -5.144531 1.515625 -7.875 1.515625 -11.1875 C 1.515625 -14.5 2.5 -17.226562 4.46875 -19.375 C 6.5625 -21.613281 9.28125 -22.734375 12.625 -22.734375 Z M 12.625 -2.6875 C 15.039062 -2.6875 16.945312 -3.519531 18.34375 -5.1875 C 19.6875 -6.769531 20.359375 -8.769531 20.359375 -11.1875 C 20.359375 -13.601562 19.6875 -15.601562 18.34375 -17.1875 C 16.945312 -18.851562 15.039062 -19.6875 12.625 -19.6875 C 10.207031 -19.6875 8.296875 -18.851562 6.890625 -17.1875 C 5.546875 -15.601562 4.875 -13.601562 4.875 -11.1875 C 4.875 -8.769531 5.546875 -6.769531 6.890625 -5.1875 C 8.296875 -3.519531 10.207031 -2.6875 12.625 -2.6875 Z M 12.625 -2.6875 "/></g></g></g><g fill="#60b404" fill-opacity="1"><g transform="translate(84.103003, 172.478549)"><g><path d="M 6.265625 -22.375 L 6.265625 -18.890625 C 7.066406 -19.960938 8.050781 -20.867188 9.21875 -21.609375 C 10.382812 -22.359375 11.710938 -22.734375 13.203125 -22.734375 C 14.691406 -22.734375 15.972656 -22.523438 17.046875 -22.109375 C 18.117188 -21.691406 19.0625 -21.066406 19.875 -20.234375 C 21.71875 -18.410156 22.640625 -16.003906 22.640625 -13.015625 L 22.640625 0 L 19.28125 0 L 19.28125 -12.9375 C 19.28125 -14.988281 18.695312 -16.625 17.53125 -17.84375 C 16.375 -19.070312 14.867188 -19.6875 13.015625 -19.6875 C 11.140625 -19.6875 9.546875 -19.0625 8.234375 -17.8125 C 6.921875 -16.53125 6.265625 -14.890625 6.265625 -12.890625 L 6.265625 0 L 2.90625 0 L 2.90625 -22.375 Z M 6.265625 -22.375 "/></g></g></g><g fill="#60b404" fill-opacity="1"><g transform="translate(109.427205, 172.478549)"><g><path d="M 6.265625 -22.375 L 6.265625 -18.890625 C 7.066406 -19.960938 8.050781 -20.867188 9.21875 -21.609375 C 10.382812 -22.359375 11.710938 -22.734375 13.203125 -22.734375 C 14.691406 -22.734375 15.972656 -22.523438 17.046875 -22.109375 C 18.117188 -21.691406 19.0625 -21.066406 19.875 -20.234375 C 21.71875 -18.410156 22.640625 -16.003906 22.640625 -13.015625 L 22.640625 0 L 19.28125 0 L 19.28125 -12.9375 C 19.28125 -14.988281 18.695312 -16.625 17.53125 -17.84375 C 16.375 -19.070312 14.867188 -19.6875 13.015625 -19.6875 C 11.140625 -19.6875 9.546875 -19.0625 8.234375 -17.8125 C 6.921875 -16.53125 6.265625 -14.890625 6.265625 -12.890625 L 6.265625 0 L 2.90625 0 L 2.90625 -22.375 Z M 6.265625 -22.375 "/></g></g></g><g fill="#60b404" fill-opacity="1"><g transform="translate(134.751407, 172.478549)"><g><path d="M 12.890625 -2.6875 C 15.898438 -2.6875 18.0625 -3.9375 19.375 -6.4375 L 23.046875 -6.4375 C 22.265625 -4.414062 21.03125 -2.773438 19.34375 -1.515625 C 17.664062 -0.265625 15.5 0.359375 12.84375 0.359375 C 9.46875 0.359375 6.722656 -0.757812 4.609375 -3 C 2.546875 -5.175781 1.515625 -7.90625 1.515625 -11.1875 C 1.515625 -14.5 2.5 -17.226562 4.46875 -19.375 C 6.5625 -21.613281 9.28125 -22.734375 12.625 -22.734375 C 15.957031 -22.734375 18.671875 -21.613281 20.765625 -19.375 C 22.734375 -17.226562 23.71875 -14.5 23.71875 -11.1875 L 23.71875 -9.84375 L 4.96875 -9.84375 C 5.207031 -7.78125 6.023438 -6.082031 7.421875 -4.75 C 8.859375 -3.375 10.679688 -2.6875 12.890625 -2.6875 Z M 12.625 -19.6875 C 10.5625 -19.6875 8.828125 -19.046875 7.421875 -17.765625 C 6.109375 -16.546875 5.304688 -14.953125 5.015625 -12.984375 L 20.234375 -12.984375 C 19.929688 -14.953125 19.125 -16.546875 17.8125 -17.765625 C 16.40625 -19.046875 14.675781 -19.6875 12.625 -19.6875 Z M 12.625 -19.6875 "/></g></g></g><g fill="#60b404" fill-opacity="1"><g transform="translate(159.672924, 172.478549)"><g><path d="M 13.25 -2.6875 C 14.675781 -2.6875 15.941406 -3.085938 17.046875 -3.890625 C 18.148438 -4.691406 18.957031 -5.738281 19.46875 -7.03125 L 23.09375 -7.03125 C 22.40625 -4.820312 21.148438 -3.046875 19.328125 -1.703125 C 17.421875 -0.328125 15.15625 0.359375 12.53125 0.359375 C 9.25 0.359375 6.578125 -0.757812 4.515625 -3 C 2.515625 -5.175781 1.515625 -7.90625 1.515625 -11.1875 C 1.515625 -14.46875 2.515625 -17.195312 4.515625 -19.375 C 6.578125 -21.613281 9.25 -22.734375 12.53125 -22.734375 C 15.15625 -22.734375 17.421875 -22.046875 19.328125 -20.671875 C 21.148438 -19.328125 22.40625 -17.550781 23.09375 -15.34375 L 19.46875 -15.34375 C 18.957031 -16.632812 18.148438 -17.679688 17.046875 -18.484375 C 15.941406 -19.285156 14.671875 -19.6875 13.234375 -19.6875 C 11.804688 -19.6875 10.59375 -19.460938 9.59375 -19.015625 C 8.59375 -18.566406 7.753906 -17.957031 7.078125 -17.1875 C 5.609375 -15.570312 4.875 -13.570312 4.875 -11.1875 C 4.875 -8.800781 5.609375 -6.800781 7.078125 -5.1875 C 8.566406 -3.519531 10.625 -2.6875 13.25 -2.6875 Z M 13.25 -2.6875 "/></g></g></g><g fill="#60b404" fill-opacity="1"><g transform="translate(184.012819, 172.478549)"><g><path d="M 5.328125 0 L 5.328125 -19.421875 L 0.765625 -19.421875 L 0.765625 -22.375 L 5.328125 -22.375 L 5.328125 -30.390625 L 8.6875 -30.390625 L 8.6875 -22.375 L 13.828125 -22.375 L 13.828125 -19.421875 L 8.6875 -19.421875 L 8.6875 0 Z M 5.328125 0 "/></g></g></g><g clip-path="url(#2b216080f5)"><path fill="#60b404" d="M 158.355469 35.5 C 170.609375 31.265625 178.085938 18.863281 176.109375 5.988281 C 163.832031 10.222656 156.304688 22.621094 158.355469 35.5 Z M 158.355469 35.5 " fill-opacity="1" fill-rule="evenodd"/></g><g clip-path="url(#f923c25591)"><path fill="#f13556" d="M 170.285156 40.558594 C 182.8125 40.558594 194.117188 45.621094 202.292969 53.8125 C 210.542969 62.078125 215.59375 73.375 215.59375 85.875 C 215.59375 98.425781 210.542969 109.75 202.292969 117.941406 C 194.117188 126.207031 182.789062 131.269531 170.285156 131.269531 C 202.292969 124.980469 218.644531 83.523438 195.640625 60.5 C 189.6875 54.539062 182.085938 51.15625 174.234375 50.253906 C 175.636719 51.40625 177.0625 52.558594 178.3125 53.835938 C 184.636719 60.222656 189.113281 68.492188 190.839844 77.761719 L 181.1875 77.761719 C 179.660156 71.097656 176.285156 65.160156 171.683594 60.5 C 167.910156 56.792969 163.382812 53.910156 158.332031 52.058594 C 153.429688 53.785156 148.828125 56.59375 144.929688 60.5 C 138.476562 67.011719 134.449219 75.980469 134.449219 85.902344 C 134.449219 95.820312 138.476562 104.839844 144.929688 111.304688 C 148.703125 115.085938 153.253906 117.964844 158.28125 119.820312 C 163.40625 117.964844 167.933594 115.085938 171.683594 111.304688 C 176.285156 106.695312 179.660156 100.730469 181.1875 94.066406 L 190.839844 94.066406 C 189.113281 103.335938 184.636719 111.605469 178.3125 117.941406 C 176.960938 119.292969 175.636719 120.496094 174.160156 121.648438 L 174.335938 121.574219 C 169.660156 125.28125 164.234375 128.035156 158.355469 129.640625 C 159.507812 129.964844 160.730469 130.265625 161.933594 130.46875 C 160.707031 130.214844 159.433594 129.941406 158.230469 129.640625 C 154.40625 130.667969 150.355469 131.242188 146.230469 131.242188 C 133.777344 131.242188 122.472656 126.183594 114.222656 117.917969 C 106.070312 109.675781 101.015625 98.351562 101.015625 85.828125 C 101.015625 73.351562 106.070312 62.027344 114.246094 53.761719 C 122.496094 45.570312 133.777344 40.507812 146.253906 40.507812 C 114.320312 46.722656 97.890625 88.257812 120.898438 111.226562 C 126.574219 116.914062 134.050781 120.722656 142.425781 121.597656 C 140.953125 120.445312 139.601562 119.21875 138.277344 117.890625 C 130.101562 109.699219 125.046875 98.351562 125.046875 85.828125 C 125.046875 73.351562 130.101562 62.027344 138.277344 53.761719 C 139.628906 52.484375 140.953125 51.257812 142.425781 50.105469 L 142.253906 50.105469 C 145.078125 47.925781 148.128906 46.019531 151.453125 44.515625 C 145.304688 38.078125 141.527344 30.640625 141.152344 22.273438 C 140.703125 13.179688 147.277344 14.90625 148.304688 20.144531 C 152.207031 40.359375 159.480469 38.90625 173.484375 49.578125 L 173.558594 49.578125 L 173.558594 49.652344 L 173.636719 49.652344 L 173.710938 49.726562 L 173.785156 49.804688 L 173.859375 49.804688 L 173.859375 49.878906 L 173.933594 49.878906 L 174.011719 49.953125 L 174.085938 50.027344 L 174.183594 50.027344 L 174.183594 50.105469 L 174.261719 50.105469 L 174.335938 50.179688 C 171.460938 46.871094 169.484375 43.664062 168.460938 40.585938 C 168.933594 40.558594 169.660156 40.558594 170.285156 40.558594 Z M 170.285156 40.558594 " fill-opacity="1" fill-rule="nonzero"/></g></svg>